<svg xmlns="http://www.w3.org/2000/svg" width="415" height="337" viewBox="0 0 415 337" role="img" aria-labelledby="oss-t oss-d">
<title id="oss-t">Merged PRs to other projects</title><desc id="oss-d">bradtraversy/design-resources-for-developers: 1 merged, coollabsio/coolify: 2 merged, NginxProxyManager/nginx-proxy-manager: 1 merged, wxt-dev/wxt: 3 merged, trungdq88/Awesome-Black-Friday-Cyber-Monday: 1 merged, Pagefind/pagefind: 1 merged, marcelscruz/dev-resources: 1 merged, wxt-dev/examples: 1 merged, Avik-creator/markdown_video: 1 merged</desc>
<style>text{font-family:-apple-system,BlinkMacSystemFont,'Segoe UI','Noto Sans',Helvetica,Arial,sans-serif;font-size:14px;fill:#f0f6fc}.m{fill:#9198a1;font-size:12px}.b{font-weight:600}.n{font-variant-numeric:tabular-nums}</style>
<rect x="0.5" y="0.5" width="414" height="336" rx="6" fill="none" stroke="#3d444d"/>
<text x="20" y="32" class="b">Merged PRs to other projects</text>
<text x="395" y="32" text-anchor="end" class="m">9 projects</text>
<path transform="translate(20 54)" fill="#9198a1" d="M5.45 5.154A4.25 4.25 0 0 0 9.25 7.5h1.378a2.251 2.251 0 1 1 0 1.5H9.25A5.734 5.734 0 0 1 5 7.123v3.505a2.25 2.25 0 1 1-1.5 0V5.372a2.25 2.25 0 1 1 1.95-.218ZM4.25 13.5a.75.75 0 1 0 0-1.5.75.75 0 0 0 0 1.5Zm8.5-4.5a.75.75 0 1 0 0-1.5.75.75 0 0 0 0 1.5ZM5 3.25a.75.75 0 1 0 0 .005V3.25Z"/><text x="46" y="66">bradtraversy/design-resou…</text><path transform="translate(263 54)" fill="#9198a1" d="M8 .25a.75.75 0 0 1 .673.418l1.882 3.815 4.21.612a.75.75 0 0 1 .416 1.279l-3.046 2.97.719 4.192a.751.751 0 0 1-1.088.791L8 12.347l-3.766 1.98a.75.75 0 0 1-1.088-.79l.72-4.194L.818 6.374a.75.75 0 0 1 .416-1.28l4.21-.611L7.327.668A.75.75 0 0 1 8 .25Zm0 2.445L6.615 5.5a.75.75 0 0 1-.564.41l-3.097.45 2.24 2.184a.75.75 0 0 1 .216.664l-.528 3.084 2.769-1.456a.75.75 0 0 1 .698 0l2.77 1.456-.53-3.084a.75.75 0 0 1 .216-.664l2.24-2.183-3.096-.45a.75.75 0 0 1-.564-.41L8 2.694Z"/><text x="285" y="66" class="m n">67,120</text><text x="395" y="66" text-anchor="end" class="b n">1 PR</text><path transform="translate(20 81)" fill="#9198a1" d="M5.45 5.154A4.25 4.25 0 0 0 9.25 7.5h1.378a2.251 2.251 0 1 1 0 1.5H9.25A5.734 5.734 0 0 1 5 7.123v3.505a2.25 2.25 0 1 1-1.5 0V5.372a2.25 2.25 0 1 1 1.95-.218ZM4.25 13.5a.75.75 0 1 0 0-1.5.75.75 0 0 0 0 1.5Zm8.5-4.5a.75.75 0 1 0 0-1.5.75.75 0 0 0 0 1.5ZM5 3.25a.75.75 0 1 0 0 .005V3.25Z"/><text x="46" y="93">coollabsio/coolify</text><path transform="translate(263 81)" fill="#9198a1" d="M8 .25a.75.75 0 0 1 .673.418l1.882 3.815 4.21.612a.75.75 0 0 1 .416 1.279l-3.046 2.97.719 4.192a.751.751 0 0 1-1.088.791L8 12.347l-3.766 1.98a.75.75 0 0 1-1.088-.79l.72-4.194L.818 6.374a.75.75 0 0 1 .416-1.28l4.21-.611L7.327.668A.75.75 0 0 1 8 .25Zm0 2.445L6.615 5.5a.75.75 0 0 1-.564.41l-3.097.45 2.24 2.184a.75.75 0 0 1 .216.664l-.528 3.084 2.769-1.456a.75.75 0 0 1 .698 0l2.77 1.456-.53-3.084a.75.75 0 0 1 .216-.664l2.24-2.183-3.096-.45a.75.75 0 0 1-.564-.41L8 2.694Z"/><text x="285" y="93" class="m n">62,786</text><text x="395" y="93" text-anchor="end" class="b n">2 PRs</text><path transform="translate(20 108)" fill="#9198a1" d="M5.45 5.154A4.25 4.25 0 0 0 9.25 7.5h1.378a2.251 2.251 0 1 1 0 1.5H9.25A5.734 5.734 0 0 1 5 7.123v3.505a2.25 2.25 0 1 1-1.5 0V5.372a2.25 2.25 0 1 1 1.95-.218ZM4.25 13.5a.75.75 0 1 0 0-1.5.75.75 0 0 0 0 1.5Zm8.5-4.5a.75.75 0 1 0 0-1.5.75.75 0 0 0 0 1.5ZM5 3.25a.75.75 0 1 0 0 .005V3.25Z"/><text x="46" y="120">NginxProxyManager/nginx-p…</text><path transform="translate(263 108)" fill="#9198a1" d="M8 .25a.75.75 0 0 1 .673.418l1.882 3.815 4.21.612a.75.75 0 0 1 .416 1.279l-3.046 2.97.719 4.192a.751.751 0 0 1-1.088.791L8 12.347l-3.766 1.98a.75.75 0 0 1-1.088-.79l.72-4.194L.818 6.374a.75.75 0 0 1 .416-1.28l4.21-.611L7.327.668A.75.75 0 0 1 8 .25Zm0 2.445L6.615 5.5a.75.75 0 0 1-.564.41l-3.097.45 2.24 2.184a.75.75 0 0 1 .216.664l-.528 3.084 2.769-1.456a.75.75 0 0 1 .698 0l2.77 1.456-.53-3.084a.75.75 0 0 1 .216-.664l2.24-2.183-3.096-.45a.75.75 0 0 1-.564-.41L8 2.694Z"/><text x="285" y="120" class="m n">34,359</text><text x="395" y="120" text-anchor="end" class="b n">1 PR</text><path transform="translate(20 135)" fill="#9198a1" d="M5.45 5.154A4.25 4.25 0 0 0 9.25 7.5h1.378a2.251 2.251 0 1 1 0 1.5H9.25A5.734 5.734 0 0 1 5 7.123v3.505a2.25 2.25 0 1 1-1.5 0V5.372a2.25 2.25 0 1 1 1.95-.218ZM4.25 13.5a.75.75 0 1 0 0-1.5.75.75 0 0 0 0 1.5Zm8.5-4.5a.75.75 0 1 0 0-1.5.75.75 0 0 0 0 1.5ZM5 3.25a.75.75 0 1 0 0 .005V3.25Z"/><text x="46" y="147">wxt-dev/wxt</text><path transform="translate(263 135)" fill="#9198a1" d="M8 .25a.75.75 0 0 1 .673.418l1.882 3.815 4.21.612a.75.75 0 0 1 .416 1.279l-3.046 2.97.719 4.192a.751.751 0 0 1-1.088.791L8 12.347l-3.766 1.98a.75.75 0 0 1-1.088-.79l.72-4.194L.818 6.374a.75.75 0 0 1 .416-1.28l4.21-.611L7.327.668A.75.75 0 0 1 8 .25Zm0 2.445L6.615 5.5a.75.75 0 0 1-.564.41l-3.097.45 2.24 2.184a.75.75 0 0 1 .216.664l-.528 3.084 2.769-1.456a.75.75 0 0 1 .698 0l2.77 1.456-.53-3.084a.75.75 0 0 1 .216-.664l2.24-2.183-3.096-.45a.75.75 0 0 1-.564-.41L8 2.694Z"/><text x="285" y="147" class="m n">10,588</text><text x="395" y="147" text-anchor="end" class="b n">3 PRs</text><path transform="translate(20 162)" fill="#9198a1" d="M5.45 5.154A4.25 4.25 0 0 0 9.25 7.5h1.378a2.251 2.251 0 1 1 0 1.5H9.25A5.734 5.734 0 0 1 5 7.123v3.505a2.25 2.25 0 1 1-1.5 0V5.372a2.25 2.25 0 1 1 1.95-.218ZM4.25 13.5a.75.75 0 1 0 0-1.5.75.75 0 0 0 0 1.5Zm8.5-4.5a.75.75 0 1 0 0-1.5.75.75 0 0 0 0 1.5ZM5 3.25a.75.75 0 1 0 0 .005V3.25Z"/><text x="46" y="174">trungdq88/Awesome-Black-F…</text><path transform="translate(263 162)" fill="#9198a1" d="M8 .25a.75.75 0 0 1 .673.418l1.882 3.815 4.21.612a.75.75 0 0 1 .416 1.279l-3.046 2.97.719 4.192a.751.751 0 0 1-1.088.791L8 12.347l-3.766 1.98a.75.75 0 0 1-1.088-.79l.72-4.194L.818 6.374a.75.75 0 0 1 .416-1.28l4.21-.611L7.327.668A.75.75 0 0 1 8 .25Zm0 2.445L6.615 5.5a.75.75 0 0 1-.564.41l-3.097.45 2.24 2.184a.75.75 0 0 1 .216.664l-.528 3.084 2.769-1.456a.75.75 0 0 1 .698 0l2.77 1.456-.53-3.084a.75.75 0 0 1 .216-.664l2.24-2.183-3.096-.45a.75.75 0 0 1-.564-.41L8 2.694Z"/><text x="285" y="174" class="m n">7,487</text><text x="395" y="174" text-anchor="end" class="b n">1 PR</text><path transform="translate(20 189)" fill="#9198a1" d="M5.45 5.154A4.25 4.25 0 0 0 9.25 7.5h1.378a2.251 2.251 0 1 1 0 1.5H9.25A5.734 5.734 0 0 1 5 7.123v3.505a2.25 2.25 0 1 1-1.5 0V5.372a2.25 2.25 0 1 1 1.95-.218ZM4.25 13.5a.75.75 0 1 0 0-1.5.75.75 0 0 0 0 1.5Zm8.5-4.5a.75.75 0 1 0 0-1.5.75.75 0 0 0 0 1.5ZM5 3.25a.75.75 0 1 0 0 .005V3.25Z"/><text x="46" y="201">Pagefind/pagefind</text><path transform="translate(263 189)" fill="#9198a1" d="M8 .25a.75.75 0 0 1 .673.418l1.882 3.815 4.21.612a.75.75 0 0 1 .416 1.279l-3.046 2.97.719 4.192a.751.751 0 0 1-1.088.791L8 12.347l-3.766 1.98a.75.75 0 0 1-1.088-.79l.72-4.194L.818 6.374a.75.75 0 0 1 .416-1.28l4.21-.611L7.327.668A.75.75 0 0 1 8 .25Zm0 2.445L6.615 5.5a.75.75 0 0 1-.564.41l-3.097.45 2.24 2.184a.75.75 0 0 1 .216.664l-.528 3.084 2.769-1.456a.75.75 0 0 1 .698 0l2.77 1.456-.53-3.084a.75.75 0 0 1 .216-.664l2.24-2.183-3.096-.45a.75.75 0 0 1-.564-.41L8 2.694Z"/><text x="285" y="201" class="m n">5,504</text><text x="395" y="201" text-anchor="end" class="b n">1 PR</text><path transform="translate(20 216)" fill="#9198a1" d="M5.45 5.154A4.25 4.25 0 0 0 9.25 7.5h1.378a2.251 2.251 0 1 1 0 1.5H9.25A5.734 5.734 0 0 1 5 7.123v3.505a2.25 2.25 0 1 1-1.5 0V5.372a2.25 2.25 0 1 1 1.95-.218ZM4.25 13.5a.75.75 0 1 0 0-1.5.75.75 0 0 0 0 1.5Zm8.5-4.5a.75.75 0 1 0 0-1.5.75.75 0 0 0 0 1.5ZM5 3.25a.75.75 0 1 0 0 .005V3.25Z"/><text x="46" y="228">marcelscruz/dev-resources</text><path transform="translate(263 216)" fill="#9198a1" d="M8 .25a.75.75 0 0 1 .673.418l1.882 3.815 4.21.612a.75.75 0 0 1 .416 1.279l-3.046 2.97.719 4.192a.751.751 0 0 1-1.088.791L8 12.347l-3.766 1.98a.75.75 0 0 1-1.088-.79l.72-4.194L.818 6.374a.75.75 0 0 1 .416-1.28l4.21-.611L7.327.668A.75.75 0 0 1 8 .25Zm0 2.445L6.615 5.5a.75.75 0 0 1-.564.41l-3.097.45 2.24 2.184a.75.75 0 0 1 .216.664l-.528 3.084 2.769-1.456a.75.75 0 0 1 .698 0l2.77 1.456-.53-3.084a.75.75 0 0 1 .216-.664l2.24-2.183-3.096-.45a.75.75 0 0 1-.564-.41L8 2.694Z"/><text x="285" y="228" class="m n">1,352</text><text x="395" y="228" text-anchor="end" class="b n">1 PR</text><path transform="translate(20 243)" fill="#9198a1" d="M5.45 5.154A4.25 4.25 0 0 0 9.25 7.5h1.378a2.251 2.251 0 1 1 0 1.5H9.25A5.734 5.734 0 0 1 5 7.123v3.505a2.25 2.25 0 1 1-1.5 0V5.372a2.25 2.25 0 1 1 1.95-.218ZM4.25 13.5a.75.75 0 1 0 0-1.5.75.75 0 0 0 0 1.5Zm8.5-4.5a.75.75 0 1 0 0-1.5.75.75 0 0 0 0 1.5ZM5 3.25a.75.75 0 1 0 0 .005V3.25Z"/><text x="46" y="255">wxt-dev/examples</text><path transform="translate(263 243)" fill="#9198a1" d="M8 .25a.75.75 0 0 1 .673.418l1.882 3.815 4.21.612a.75.75 0 0 1 .416 1.279l-3.046 2.97.719 4.192a.751.751 0 0 1-1.088.791L8 12.347l-3.766 1.98a.75.75 0 0 1-1.088-.79l.72-4.194L.818 6.374a.75.75 0 0 1 .416-1.28l4.21-.611L7.327.668A.75.75 0 0 1 8 .25Zm0 2.445L6.615 5.5a.75.75 0 0 1-.564.41l-3.097.45 2.24 2.184a.75.75 0 0 1 .216.664l-.528 3.084 2.769-1.456a.75.75 0 0 1 .698 0l2.77 1.456-.53-3.084a.75.75 0 0 1 .216-.664l2.24-2.183-3.096-.45a.75.75 0 0 1-.564-.41L8 2.694Z"/><text x="285" y="255" class="m n">132</text><text x="395" y="255" text-anchor="end" class="b n">1 PR</text><path transform="translate(20 270)" fill="#9198a1" d="M5.45 5.154A4.25 4.25 0 0 0 9.25 7.5h1.378a2.251 2.251 0 1 1 0 1.5H9.25A5.734 5.734 0 0 1 5 7.123v3.505a2.25 2.25 0 1 1-1.5 0V5.372a2.25 2.25 0 1 1 1.95-.218ZM4.25 13.5a.75.75 0 1 0 0-1.5.75.75 0 0 0 0 1.5Zm8.5-4.5a.75.75 0 1 0 0-1.5.75.75 0 0 0 0 1.5ZM5 3.25a.75.75 0 1 0 0 .005V3.25Z"/><text x="46" y="282">Avik-creator/markdown_vid…</text><path transform="translate(263 270)" fill="#9198a1" d="M8 .25a.75.75 0 0 1 .673.418l1.882 3.815 4.21.612a.75.75 0 0 1 .416 1.279l-3.046 2.97.719 4.192a.751.751 0 0 1-1.088.791L8 12.347l-3.766 1.98a.75.75 0 0 1-1.088-.79l.72-4.194L.818 6.374a.75.75 0 0 1 .416-1.28l4.21-.611L7.327.668A.75.75 0 0 1 8 .25Zm0 2.445L6.615 5.5a.75.75 0 0 1-.564.41l-3.097.45 2.24 2.184a.75.75 0 0 1 .216.664l-.528 3.084 2.769-1.456a.75.75 0 0 1 .698 0l2.77 1.456-.53-3.084a.75.75 0 0 1 .216-.664l2.24-2.183-3.096-.45a.75.75 0 0 1-.564-.41L8 2.694Z"/><text x="285" y="282" class="m n">45</text><text x="395" y="282" text-anchor="end" class="b n">1 PR</text>
</svg>
